<mxfile host="Electron" modified="2023-06-27T15:07:38.173Z" agent="Mozilla/5.0 (Macintosh; Intel Mac OS X 10_15_7) AppleWebKit/537.36 (KHTML, like Gecko) draw.io/21.5.0 Chrome/112.0.5615.204 Electron/24.5.1 Safari/537.36" etag="LMY96fLlVNkIKEK4jGa5" version="21.5.0" type="device">
  <diagram name="Page-1" id="EFn-Gj9Ee4XZUjU7-5ee">
    <mxGraphModel dx="1876" dy="1763" grid="1" gridSize="10" guides="1" tooltips="1" connect="1" arrows="1" fold="1" page="1" pageScale="1" pageWidth="850" pageHeight="1100" math="0" shadow="0">
      <root>
        <mxCell id="0" />
        <mxCell id="1" parent="0" />
        <mxCell id="apwYVR8lGfrISs0WO6sZ-1" value="VPC" style="points=[[0,0],[0.25,0],[0.5,0],[0.75,0],[1,0],[1,0.25],[1,0.5],[1,0.75],[1,1],[0.75,1],[0.5,1],[0.25,1],[0,1],[0,0.75],[0,0.5],[0,0.25]];outlineConnect=0;gradientColor=none;html=1;whiteSpace=wrap;fontSize=12;fontStyle=0;container=1;pointerEvents=0;collapsible=0;recursiveResize=0;shape=mxgraph.aws4.group;grIcon=mxgraph.aws4.group_vpc;strokeColor=#248814;fillColor=none;verticalAlign=top;align=left;spacingLeft=30;fontColor=#AAB7B8;dashed=0;" vertex="1" parent="1">
          <mxGeometry x="-160" y="120" width="1120" height="720" as="geometry" />
        </mxCell>
        <mxCell id="apwYVR8lGfrISs0WO6sZ-2" value="Private subnet" style="points=[[0,0],[0.25,0],[0.5,0],[0.75,0],[1,0],[1,0.25],[1,0.5],[1,0.75],[1,1],[0.75,1],[0.5,1],[0.25,1],[0,1],[0,0.75],[0,0.5],[0,0.25]];outlineConnect=0;gradientColor=none;html=1;whiteSpace=wrap;fontSize=12;fontStyle=0;container=1;pointerEvents=0;collapsible=0;recursiveResize=0;shape=mxgraph.aws4.group;grIcon=mxgraph.aws4.group_security_group;grStroke=0;strokeColor=#147EBA;fillColor=#E6F2F8;verticalAlign=top;align=left;spacingLeft=30;fontColor=#147EBA;dashed=0;" vertex="1" parent="apwYVR8lGfrISs0WO6sZ-1">
          <mxGeometry x="279.5" y="40" width="840.5" height="660" as="geometry" />
        </mxCell>
        <mxCell id="apwYVR8lGfrISs0WO6sZ-12" value="Guards" style="swimlane;fontStyle=0;childLayout=stackLayout;horizontal=1;startSize=30;horizontalStack=0;resizeParent=1;resizeParentMax=0;resizeLast=0;collapsible=1;marginBottom=0;whiteSpace=wrap;html=1;" vertex="1" parent="apwYVR8lGfrISs0WO6sZ-2">
          <mxGeometry x="220.5" y="70" width="140" height="150" as="geometry" />
        </mxCell>
        <mxCell id="apwYVR8lGfrISs0WO6sZ-46" value="" style="sketch=0;points=[[0,0,0],[0.25,0,0],[0.5,0,0],[0.75,0,0],[1,0,0],[0,1,0],[0.25,1,0],[0.5,1,0],[0.75,1,0],[1,1,0],[0,0.25,0],[0,0.5,0],[0,0.75,0],[1,0.25,0],[1,0.5,0],[1,0.75,0]];outlineConnect=0;fontColor=#232F3E;gradientColor=#4D72F3;gradientDirection=north;fillColor=#3334B9;strokeColor=#ffffff;dashed=0;verticalLabelPosition=bottom;verticalAlign=top;align=center;html=1;fontSize=12;fontStyle=0;aspect=fixed;shape=mxgraph.aws4.resourceIcon;resIcon=mxgraph.aws4.dynamodb;" vertex="1" parent="apwYVR8lGfrISs0WO6sZ-12">
          <mxGeometry y="30" width="140" height="30" as="geometry" />
        </mxCell>
        <mxCell id="apwYVR8lGfrISs0WO6sZ-13" value="Item 1" style="text;strokeColor=none;fillColor=none;align=left;verticalAlign=middle;spacingLeft=4;spacingRight=4;overflow=hidden;points=[[0,0.5],[1,0.5]];portConstraint=eastwest;rotatable=0;whiteSpace=wrap;html=1;" vertex="1" parent="apwYVR8lGfrISs0WO6sZ-12">
          <mxGeometry y="60" width="140" height="30" as="geometry" />
        </mxCell>
        <mxCell id="apwYVR8lGfrISs0WO6sZ-14" value="Item 2" style="text;strokeColor=none;fillColor=none;align=left;verticalAlign=middle;spacingLeft=4;spacingRight=4;overflow=hidden;points=[[0,0.5],[1,0.5]];portConstraint=eastwest;rotatable=0;whiteSpace=wrap;html=1;" vertex="1" parent="apwYVR8lGfrISs0WO6sZ-12">
          <mxGeometry y="90" width="140" height="30" as="geometry" />
        </mxCell>
        <mxCell id="apwYVR8lGfrISs0WO6sZ-15" value="Item 3" style="text;strokeColor=none;fillColor=none;align=left;verticalAlign=middle;spacingLeft=4;spacingRight=4;overflow=hidden;points=[[0,0.5],[1,0.5]];portConstraint=eastwest;rotatable=0;whiteSpace=wrap;html=1;" vertex="1" parent="apwYVR8lGfrISs0WO6sZ-12">
          <mxGeometry y="120" width="140" height="30" as="geometry" />
        </mxCell>
        <mxCell id="apwYVR8lGfrISs0WO6sZ-49" value="Guards Audit" style="swimlane;fontStyle=0;childLayout=stackLayout;horizontal=1;startSize=30;horizontalStack=0;resizeParent=1;resizeParentMax=0;resizeLast=0;collapsible=1;marginBottom=0;whiteSpace=wrap;html=1;" vertex="1" parent="apwYVR8lGfrISs0WO6sZ-2">
          <mxGeometry x="576" y="70" width="140" height="150" as="geometry" />
        </mxCell>
        <mxCell id="apwYVR8lGfrISs0WO6sZ-50" value="" style="sketch=0;points=[[0,0,0],[0.25,0,0],[0.5,0,0],[0.75,0,0],[1,0,0],[0,1,0],[0.25,1,0],[0.5,1,0],[0.75,1,0],[1,1,0],[0,0.25,0],[0,0.5,0],[0,0.75,0],[1,0.25,0],[1,0.5,0],[1,0.75,0]];outlineConnect=0;fontColor=#232F3E;gradientColor=#4D72F3;gradientDirection=north;fillColor=#3334B9;strokeColor=#ffffff;dashed=0;verticalLabelPosition=bottom;verticalAlign=top;align=center;html=1;fontSize=12;fontStyle=0;aspect=fixed;shape=mxgraph.aws4.resourceIcon;resIcon=mxgraph.aws4.dynamodb;" vertex="1" parent="apwYVR8lGfrISs0WO6sZ-49">
          <mxGeometry y="30" width="140" height="30" as="geometry" />
        </mxCell>
        <mxCell id="apwYVR8lGfrISs0WO6sZ-51" value="Item 1" style="text;strokeColor=none;fillColor=none;align=left;verticalAlign=middle;spacingLeft=4;spacingRight=4;overflow=hidden;points=[[0,0.5],[1,0.5]];portConstraint=eastwest;rotatable=0;whiteSpace=wrap;html=1;" vertex="1" parent="apwYVR8lGfrISs0WO6sZ-49">
          <mxGeometry y="60" width="140" height="30" as="geometry" />
        </mxCell>
        <mxCell id="apwYVR8lGfrISs0WO6sZ-52" value="Item 2" style="text;strokeColor=none;fillColor=none;align=left;verticalAlign=middle;spacingLeft=4;spacingRight=4;overflow=hidden;points=[[0,0.5],[1,0.5]];portConstraint=eastwest;rotatable=0;whiteSpace=wrap;html=1;" vertex="1" parent="apwYVR8lGfrISs0WO6sZ-49">
          <mxGeometry y="90" width="140" height="30" as="geometry" />
        </mxCell>
        <mxCell id="apwYVR8lGfrISs0WO6sZ-53" value="Item 3" style="text;strokeColor=none;fillColor=none;align=left;verticalAlign=middle;spacingLeft=4;spacingRight=4;overflow=hidden;points=[[0,0.5],[1,0.5]];portConstraint=eastwest;rotatable=0;whiteSpace=wrap;html=1;" vertex="1" parent="apwYVR8lGfrISs0WO6sZ-49">
          <mxGeometry y="120" width="140" height="30" as="geometry" />
        </mxCell>
        <mxCell id="apwYVR8lGfrISs0WO6sZ-57" style="edgeStyle=orthogonalEdgeStyle;rounded=0;orthogonalLoop=1;jettySize=auto;html=1;" edge="1" parent="apwYVR8lGfrISs0WO6sZ-2" source="apwYVR8lGfrISs0WO6sZ-54" target="apwYVR8lGfrISs0WO6sZ-55">
          <mxGeometry relative="1" as="geometry" />
        </mxCell>
        <mxCell id="apwYVR8lGfrISs0WO6sZ-54" value="" style="sketch=0;outlineConnect=0;fontColor=#232F3E;gradientColor=none;fillColor=#2E27AD;strokeColor=none;dashed=0;verticalLabelPosition=bottom;verticalAlign=top;align=center;html=1;fontSize=12;fontStyle=0;aspect=fixed;pointerEvents=1;shape=mxgraph.aws4.dynamodb_stream;" vertex="1" parent="apwYVR8lGfrISs0WO6sZ-2">
          <mxGeometry x="396" y="125" width="40" height="40" as="geometry" />
        </mxCell>
        <mxCell id="apwYVR8lGfrISs0WO6sZ-58" style="edgeStyle=orthogonalEdgeStyle;rounded=0;orthogonalLoop=1;jettySize=auto;html=1;" edge="1" parent="apwYVR8lGfrISs0WO6sZ-2" source="apwYVR8lGfrISs0WO6sZ-55" target="apwYVR8lGfrISs0WO6sZ-51">
          <mxGeometry relative="1" as="geometry" />
        </mxCell>
        <mxCell id="apwYVR8lGfrISs0WO6sZ-55" value="" style="outlineConnect=0;dashed=0;verticalLabelPosition=bottom;verticalAlign=top;align=center;html=1;shape=mxgraph.aws3.lambda_function;fillColor=#F58534;gradientColor=none;" vertex="1" parent="apwYVR8lGfrISs0WO6sZ-2">
          <mxGeometry x="487.5" y="127.5" width="39.5" height="35" as="geometry" />
        </mxCell>
        <mxCell id="apwYVR8lGfrISs0WO6sZ-56" style="edgeStyle=orthogonalEdgeStyle;rounded=0;orthogonalLoop=1;jettySize=auto;html=1;" edge="1" parent="apwYVR8lGfrISs0WO6sZ-2" source="apwYVR8lGfrISs0WO6sZ-13" target="apwYVR8lGfrISs0WO6sZ-54">
          <mxGeometry relative="1" as="geometry" />
        </mxCell>
        <mxCell id="apwYVR8lGfrISs0WO6sZ-61" value="Sessions Audit" style="swimlane;fontStyle=0;childLayout=stackLayout;horizontal=1;startSize=30;horizontalStack=0;resizeParent=1;resizeParentMax=0;resizeLast=0;collapsible=1;marginBottom=0;whiteSpace=wrap;html=1;" vertex="1" parent="apwYVR8lGfrISs0WO6sZ-2">
          <mxGeometry x="220.5" y="244" width="140" height="150" as="geometry" />
        </mxCell>
        <mxCell id="apwYVR8lGfrISs0WO6sZ-62" value="" style="sketch=0;points=[[0,0,0],[0.25,0,0],[0.5,0,0],[0.75,0,0],[1,0,0],[0,1,0],[0.25,1,0],[0.5,1,0],[0.75,1,0],[1,1,0],[0,0.25,0],[0,0.5,0],[0,0.75,0],[1,0.25,0],[1,0.5,0],[1,0.75,0]];outlineConnect=0;fontColor=#232F3E;gradientColor=#4D72F3;gradientDirection=north;fillColor=#3334B9;strokeColor=#ffffff;dashed=0;verticalLabelPosition=bottom;verticalAlign=top;align=center;html=1;fontSize=12;fontStyle=0;aspect=fixed;shape=mxgraph.aws4.resourceIcon;resIcon=mxgraph.aws4.dynamodb;" vertex="1" parent="apwYVR8lGfrISs0WO6sZ-61">
          <mxGeometry y="30" width="140" height="30" as="geometry" />
        </mxCell>
        <mxCell id="apwYVR8lGfrISs0WO6sZ-63" value="Item 1" style="text;strokeColor=none;fillColor=none;align=left;verticalAlign=middle;spacingLeft=4;spacingRight=4;overflow=hidden;points=[[0,0.5],[1,0.5]];portConstraint=eastwest;rotatable=0;whiteSpace=wrap;html=1;" vertex="1" parent="apwYVR8lGfrISs0WO6sZ-61">
          <mxGeometry y="60" width="140" height="30" as="geometry" />
        </mxCell>
        <mxCell id="apwYVR8lGfrISs0WO6sZ-64" value="Item 2" style="text;strokeColor=none;fillColor=none;align=left;verticalAlign=middle;spacingLeft=4;spacingRight=4;overflow=hidden;points=[[0,0.5],[1,0.5]];portConstraint=eastwest;rotatable=0;whiteSpace=wrap;html=1;" vertex="1" parent="apwYVR8lGfrISs0WO6sZ-61">
          <mxGeometry y="90" width="140" height="30" as="geometry" />
        </mxCell>
        <mxCell id="apwYVR8lGfrISs0WO6sZ-65" value="Item 3" style="text;strokeColor=none;fillColor=none;align=left;verticalAlign=middle;spacingLeft=4;spacingRight=4;overflow=hidden;points=[[0,0.5],[1,0.5]];portConstraint=eastwest;rotatable=0;whiteSpace=wrap;html=1;" vertex="1" parent="apwYVR8lGfrISs0WO6sZ-61">
          <mxGeometry y="120" width="140" height="30" as="geometry" />
        </mxCell>
        <mxCell id="apwYVR8lGfrISs0WO6sZ-16" value="Embeddings" style="swimlane;fontStyle=0;childLayout=stackLayout;horizontal=1;startSize=30;horizontalStack=0;resizeParent=1;resizeParentMax=0;resizeLast=0;collapsible=1;marginBottom=0;whiteSpace=wrap;html=1;" vertex="1" parent="apwYVR8lGfrISs0WO6sZ-2">
          <mxGeometry x="371.5" y="420.5" width="140" height="120" as="geometry" />
        </mxCell>
        <mxCell id="apwYVR8lGfrISs0WO6sZ-17" value="Item 1" style="text;strokeColor=none;fillColor=none;align=left;verticalAlign=middle;spacingLeft=4;spacingRight=4;overflow=hidden;points=[[0,0.5],[1,0.5]];portConstraint=eastwest;rotatable=0;whiteSpace=wrap;html=1;" vertex="1" parent="apwYVR8lGfrISs0WO6sZ-16">
          <mxGeometry y="30" width="140" height="30" as="geometry" />
        </mxCell>
        <mxCell id="apwYVR8lGfrISs0WO6sZ-18" value="Item 2" style="text;strokeColor=none;fillColor=none;align=left;verticalAlign=middle;spacingLeft=4;spacingRight=4;overflow=hidden;points=[[0,0.5],[1,0.5]];portConstraint=eastwest;rotatable=0;whiteSpace=wrap;html=1;" vertex="1" parent="apwYVR8lGfrISs0WO6sZ-16">
          <mxGeometry y="60" width="140" height="30" as="geometry" />
        </mxCell>
        <mxCell id="apwYVR8lGfrISs0WO6sZ-19" value="Item 3" style="text;strokeColor=none;fillColor=none;align=left;verticalAlign=middle;spacingLeft=4;spacingRight=4;overflow=hidden;points=[[0,0.5],[1,0.5]];portConstraint=eastwest;rotatable=0;whiteSpace=wrap;html=1;" vertex="1" parent="apwYVR8lGfrISs0WO6sZ-16">
          <mxGeometry y="90" width="140" height="30" as="geometry" />
        </mxCell>
        <mxCell id="apwYVR8lGfrISs0WO6sZ-28" value="Embeddings Audit" style="swimlane;fontStyle=0;childLayout=stackLayout;horizontal=1;startSize=30;horizontalStack=0;resizeParent=1;resizeParentMax=0;resizeLast=0;collapsible=1;marginBottom=0;whiteSpace=wrap;html=1;" vertex="1" parent="apwYVR8lGfrISs0WO6sZ-2">
          <mxGeometry x="631.5" y="420.5" width="140" height="120" as="geometry" />
        </mxCell>
        <mxCell id="apwYVR8lGfrISs0WO6sZ-29" value="Item 1" style="text;strokeColor=none;fillColor=none;align=left;verticalAlign=middle;spacingLeft=4;spacingRight=4;overflow=hidden;points=[[0,0.5],[1,0.5]];portConstraint=eastwest;rotatable=0;whiteSpace=wrap;html=1;" vertex="1" parent="apwYVR8lGfrISs0WO6sZ-28">
          <mxGeometry y="30" width="140" height="30" as="geometry" />
        </mxCell>
        <mxCell id="apwYVR8lGfrISs0WO6sZ-30" value="Item 2" style="text;strokeColor=none;fillColor=none;align=left;verticalAlign=middle;spacingLeft=4;spacingRight=4;overflow=hidden;points=[[0,0.5],[1,0.5]];portConstraint=eastwest;rotatable=0;whiteSpace=wrap;html=1;" vertex="1" parent="apwYVR8lGfrISs0WO6sZ-28">
          <mxGeometry y="60" width="140" height="30" as="geometry" />
        </mxCell>
        <mxCell id="apwYVR8lGfrISs0WO6sZ-31" value="Item 3" style="text;strokeColor=none;fillColor=none;align=left;verticalAlign=middle;spacingLeft=4;spacingRight=4;overflow=hidden;points=[[0,0.5],[1,0.5]];portConstraint=eastwest;rotatable=0;whiteSpace=wrap;html=1;" vertex="1" parent="apwYVR8lGfrISs0WO6sZ-28">
          <mxGeometry y="90" width="140" height="30" as="geometry" />
        </mxCell>
        <mxCell id="apwYVR8lGfrISs0WO6sZ-38" value="Trigger Script" style="text;html=1;strokeColor=none;fillColor=none;align=center;verticalAlign=middle;whiteSpace=wrap;rounded=0;" vertex="1" parent="apwYVR8lGfrISs0WO6sZ-2">
          <mxGeometry x="545" y="429.5" width="60" height="30" as="geometry" />
        </mxCell>
        <mxCell id="apwYVR8lGfrISs0WO6sZ-35" style="edgeStyle=orthogonalEdgeStyle;rounded=0;orthogonalLoop=1;jettySize=auto;html=1;entryX=0.16;entryY=0.5;entryDx=0;entryDy=0;entryPerimeter=0;" edge="1" parent="apwYVR8lGfrISs0WO6sZ-2" target="apwYVR8lGfrISs0WO6sZ-37">
          <mxGeometry relative="1" as="geometry">
            <mxPoint x="511.5" y="484.5" as="sourcePoint" />
          </mxGeometry>
        </mxCell>
        <mxCell id="apwYVR8lGfrISs0WO6sZ-37" value="" style="sketch=0;aspect=fixed;pointerEvents=1;shadow=0;dashed=0;html=1;strokeColor=none;labelPosition=center;verticalLabelPosition=bottom;verticalAlign=top;align=center;shape=mxgraph.mscae.enterprise.triggers;fillColor=#0078D7;" vertex="1" parent="apwYVR8lGfrISs0WO6sZ-2">
          <mxGeometry x="551.5" y="459.5" width="47" height="50" as="geometry" />
        </mxCell>
        <mxCell id="apwYVR8lGfrISs0WO6sZ-36" style="edgeStyle=orthogonalEdgeStyle;rounded=0;orthogonalLoop=1;jettySize=auto;html=1;" edge="1" parent="apwYVR8lGfrISs0WO6sZ-2" source="apwYVR8lGfrISs0WO6sZ-37">
          <mxGeometry relative="1" as="geometry">
            <mxPoint x="631.5" y="484.5" as="targetPoint" />
          </mxGeometry>
        </mxCell>
        <mxCell id="apwYVR8lGfrISs0WO6sZ-48" style="edgeStyle=orthogonalEdgeStyle;rounded=0;orthogonalLoop=1;jettySize=auto;html=1;entryX=0.014;entryY=0.3;entryDx=0;entryDy=0;entryPerimeter=0;" edge="1" parent="apwYVR8lGfrISs0WO6sZ-2" source="apwYVR8lGfrISs0WO6sZ-9" target="apwYVR8lGfrISs0WO6sZ-18">
          <mxGeometry relative="1" as="geometry" />
        </mxCell>
        <mxCell id="apwYVR8lGfrISs0WO6sZ-9" value="" style="sketch=0;outlineConnect=0;fontColor=#232F3E;gradientColor=none;fillColor=#2E27AD;strokeColor=none;dashed=0;verticalLabelPosition=bottom;verticalAlign=top;align=center;html=1;fontSize=12;fontStyle=0;aspect=fixed;pointerEvents=1;shape=mxgraph.aws4.rds_postgresql_instance;" vertex="1" parent="apwYVR8lGfrISs0WO6sZ-2">
          <mxGeometry x="230.5" y="450.5" width="78" height="78" as="geometry" />
        </mxCell>
        <mxCell id="apwYVR8lGfrISs0WO6sZ-43" value="RDS Multi-AZ Instance" style="text;html=1;strokeColor=none;fillColor=none;align=center;verticalAlign=middle;whiteSpace=wrap;rounded=0;" vertex="1" parent="apwYVR8lGfrISs0WO6sZ-2">
          <mxGeometry x="220.5" y="410" width="98" height="49" as="geometry" />
        </mxCell>
        <mxCell id="apwYVR8lGfrISs0WO6sZ-44" value="Postgres Tables" style="text;html=1;strokeColor=none;fillColor=none;align=center;verticalAlign=middle;whiteSpace=wrap;rounded=0;" vertex="1" parent="apwYVR8lGfrISs0WO6sZ-2">
          <mxGeometry x="521.75" y="380" width="106.5" height="30" as="geometry" />
        </mxCell>
        <mxCell id="apwYVR8lGfrISs0WO6sZ-68" value="DynamoDB Streams + Lambda for audit capture" style="text;html=1;strokeColor=none;fillColor=none;align=center;verticalAlign=middle;whiteSpace=wrap;rounded=0;" vertex="1" parent="apwYVR8lGfrISs0WO6sZ-2">
          <mxGeometry x="380" y="90" width="180" height="30" as="geometry" />
        </mxCell>
        <mxCell id="apwYVR8lGfrISs0WO6sZ-3" value="Public subnet" style="points=[[0,0],[0.25,0],[0.5,0],[0.75,0],[1,0],[1,0.25],[1,0.5],[1,0.75],[1,1],[0.75,1],[0.5,1],[0.25,1],[0,1],[0,0.75],[0,0.5],[0,0.25]];outlineConnect=0;gradientColor=none;html=1;whiteSpace=wrap;fontSize=12;fontStyle=0;container=1;pointerEvents=0;collapsible=0;recursiveResize=0;shape=mxgraph.aws4.group;grIcon=mxgraph.aws4.group_security_group;grStroke=0;strokeColor=#248814;fillColor=#E9F3E6;verticalAlign=top;align=left;spacingLeft=30;fontColor=#248814;dashed=0;" vertex="1" parent="apwYVR8lGfrISs0WO6sZ-1">
          <mxGeometry x="20" y="40" width="220" height="600" as="geometry" />
        </mxCell>
        <mxCell id="apwYVR8lGfrISs0WO6sZ-4" value="" style="outlineConnect=0;dashed=0;verticalLabelPosition=bottom;verticalAlign=top;align=center;html=1;shape=mxgraph.aws3.application_load_balancer;fillColor=#F58534;gradientColor=none;" vertex="1" parent="apwYVR8lGfrISs0WO6sZ-3">
          <mxGeometry x="75.5" y="283" width="69" height="72" as="geometry" />
        </mxCell>
        <mxCell id="apwYVR8lGfrISs0WO6sZ-5" value="Application Load Balancer" style="text;html=1;strokeColor=none;fillColor=none;align=center;verticalAlign=middle;whiteSpace=wrap;rounded=0;" vertex="1" parent="apwYVR8lGfrISs0WO6sZ-3">
          <mxGeometry x="80" y="239.5" width="60" height="30" as="geometry" />
        </mxCell>
        <mxCell id="apwYVR8lGfrISs0WO6sZ-6" value="" style="outlineConnect=0;dashed=0;verticalLabelPosition=bottom;verticalAlign=top;align=center;html=1;shape=mxgraph.aws3.ecs;fillColor=#F58534;gradientColor=none;" vertex="1" parent="1">
          <mxGeometry x="157.25" y="439" width="81.5" height="80" as="geometry" />
        </mxCell>
        <mxCell id="apwYVR8lGfrISs0WO6sZ-7" value="&lt;h1&gt;Option 2:&lt;/h1&gt;&lt;p&gt;Micro Databases&lt;br&gt;&lt;br&gt;Pros:&lt;/p&gt;&lt;ul&gt;&lt;li&gt;&amp;nbsp;For Guards and Audit retrieval in DynamoDB&lt;/li&gt;&lt;ul&gt;&lt;li&gt;Constant Time performance&lt;br&gt;&lt;/li&gt;&lt;li style=&quot;border-color: var(--border-color);&quot;&gt;Point-in-time recovery available&lt;/li&gt;&lt;li style=&quot;border-color: var(--border-color);&quot;&gt;Multi-region replication available&lt;/li&gt;&lt;/ul&gt;&lt;li&gt;Can scale each individually according to consumption patterns&lt;/li&gt;&lt;li&gt;Performance of each DB is not impacted by the traffic or size of the others&lt;/li&gt;&lt;li&gt;Queries not competing for same resources&lt;/li&gt;&lt;/ul&gt;Cons:&lt;br&gt;&lt;ul&gt;&lt;li style=&quot;border-color: var(--border-color);&quot;&gt;No foreign key support/constraints&lt;/li&gt;&lt;ul&gt;&lt;li style=&quot;border-color: var(--border-color);&quot;&gt;Must be implemented/tracked server side&lt;/li&gt;&lt;/ul&gt;&lt;li style=&quot;border-color: var(--border-color);&quot;&gt;Additional infra setup/cost for data level audit tracking&lt;/li&gt;&lt;li style=&quot;border-color: var(--border-color);&quot;&gt;Ad-hoc&amp;nbsp;querying for analysis more complex, likely less performance if using scans&lt;/li&gt;&lt;li style=&quot;border-color: var(--border-color);&quot;&gt;Cost dependent on request count/max throughput&lt;/li&gt;&lt;li style=&quot;border-color: var(--border-color);&quot;&gt;Paying for multiple databases&lt;br&gt;&lt;/li&gt;&lt;ul&gt;&lt;li style=&quot;border-color: var(--border-color);&quot;&gt;Might be possible to cost optimize though&lt;/li&gt;&lt;/ul&gt;&lt;/ul&gt;&lt;p&gt;&lt;/p&gt;" style="text;html=1;strokeColor=none;fillColor=none;spacing=5;spacingTop=-20;whiteSpace=wrap;overflow=hidden;rounded=0;" vertex="1" parent="1">
          <mxGeometry x="-158.75" y="-300" width="309" height="420" as="geometry" />
        </mxCell>
        <mxCell id="apwYVR8lGfrISs0WO6sZ-8" value="GuardRails&amp;nbsp; CRUD API &amp;amp; Validation Service" style="text;html=1;strokeColor=none;fillColor=none;align=center;verticalAlign=middle;whiteSpace=wrap;rounded=0;" vertex="1" parent="1">
          <mxGeometry x="150.25" y="529" width="86" height="60" as="geometry" />
        </mxCell>
        <mxCell id="apwYVR8lGfrISs0WO6sZ-10" value="ECS Cluster" style="text;html=1;strokeColor=none;fillColor=none;align=center;verticalAlign=middle;whiteSpace=wrap;rounded=0;" vertex="1" parent="1">
          <mxGeometry x="163.25" y="409" width="60" height="30" as="geometry" />
        </mxCell>
        <mxCell id="apwYVR8lGfrISs0WO6sZ-42" value="" style="endArrow=classic;startArrow=classic;html=1;rounded=0;" edge="1" parent="1" source="apwYVR8lGfrISs0WO6sZ-6" target="apwYVR8lGfrISs0WO6sZ-9">
          <mxGeometry width="50" height="50" relative="1" as="geometry">
            <mxPoint x="480" y="520" as="sourcePoint" />
            <mxPoint x="530" y="470" as="targetPoint" />
          </mxGeometry>
        </mxCell>
        <mxCell id="apwYVR8lGfrISs0WO6sZ-45" value="" style="endArrow=classic;startArrow=classic;html=1;rounded=0;exitX=1;exitY=0.5;exitDx=0;exitDy=0;exitPerimeter=0;entryX=0;entryY=0.5;entryDx=0;entryDy=0;entryPerimeter=0;" edge="1" parent="1" source="apwYVR8lGfrISs0WO6sZ-4" target="apwYVR8lGfrISs0WO6sZ-6">
          <mxGeometry width="50" height="50" relative="1" as="geometry">
            <mxPoint x="460" y="630" as="sourcePoint" />
            <mxPoint x="510" y="580" as="targetPoint" />
          </mxGeometry>
        </mxCell>
        <mxCell id="apwYVR8lGfrISs0WO6sZ-60" value="" style="endArrow=classic;startArrow=classic;html=1;rounded=0;entryX=-0.014;entryY=0.967;entryDx=0;entryDy=0;entryPerimeter=0;" edge="1" parent="1" source="apwYVR8lGfrISs0WO6sZ-6" target="apwYVR8lGfrISs0WO6sZ-15">
          <mxGeometry width="50" height="50" relative="1" as="geometry">
            <mxPoint x="440" y="460" as="sourcePoint" />
            <mxPoint x="490" y="410" as="targetPoint" />
          </mxGeometry>
        </mxCell>
        <mxCell id="apwYVR8lGfrISs0WO6sZ-67" value="" style="endArrow=classic;startArrow=classic;html=1;rounded=0;" edge="1" parent="1" source="apwYVR8lGfrISs0WO6sZ-6" target="apwYVR8lGfrISs0WO6sZ-61">
          <mxGeometry width="50" height="50" relative="1" as="geometry">
            <mxPoint x="440" y="480" as="sourcePoint" />
            <mxPoint x="490" y="430" as="targetPoint" />
          </mxGeometry>
        </mxCell>
      </root>
    </mxGraphModel>
  </diagram>
</mxfile>
